#!OML:ASF F:\VICON\USERDATA\INSTALL\rory3\rory3.ASF
:FULLY-SPECIFIED
:DEGREES
528
root -0.248491 18.3002 1.98989 -178.046 24.8958 181.77
lowerback 10.9318 0.273144 -1.96924
upperback 0.140085 0.197818 0.598129
thorax -6.00069 0.183032 1.70485
lowerneck -17.0532 -9.57471 -12.6128
upperneck 33.3809 -11.9677 10.0698
head 16.3143 -4.68307 4.3618
rclavicle -4.24902e-015 -1.19271e-015
rhumerus -32.8755 -3.80033 -87.8291
rradius 42.0338
rwrist 2.7073
rhand -15.7921 9.78622
rfingers 7.12502
rthumb 10.4007 -19.9365
lclavicle -4.24902e-015 -1.19271e-015
lhumerus -37.8798 -1.37416 88.2444
lradius 31.9505
lwrist -5.89071
lhand -18.9986 23.3337
lfingers 7.12502
lthumb 7.30648 53.1876
rfemur -10.8505 -10.3482 19.6645
rtibia 23.8438
rfoot -11.6906 -21.2901
rtoes 8.7489
lfemur -0.941663 2.14655 -22.3007
ltibia 9.18701
lfoot -3.09488 12.7939
ltoes 4.80787
529
root -0.268826 18.2999 1.99546 -178.063 26.173 181.79
lowerback 10.9243 0.349786 -2.04108
upperback 0.136923 0.288906 0.581154
thorax -6.00423 0.229294 1.7131
lowerneck -16.9261 -9.60932 -12.7746
upperneck 33.3744 -12.0264 10.1643
head 16.3148 -4.72472 4.42096
rclavicle -6.2642e-014 -3.97569e-016
rhumerus -32.956 -3.75227 -87.8221
rradius 42.1303
rwrist 2.79321
rhand -15.551 9.74291
rfingers 7.12502
rthumb 10.6333 -19.9681
lclavicle -6.2642e-014 -3.97569e-016
lhumerus -37.8965 -1.19611 88.0644
lradius 31.8702
lwrist -7.03522
lhand -17.3573 23.855
lfingers 7.12502
lthumb 8.89058 53.6477
rfemur -11.1449 -11.3187 19.656
rtibia 24.5729
rfoot -12.0344 -22.0665
rtoes 10.663
lfemur -0.602374 2.6169 -22.3931
ltibia 8.67382
lfoot -2.80433 13.4787
ltoes 4.89634
530
root -0.288562 18.299 1.99986 -178.147 27.4874 181.683
lowerback 10.8506 0.428523 -2.20277
upperback 0.178524 0.370328 0.498472
thorax -5.92306 0.271505 1.70472
lowerneck -16.7029 -9.56613 -12.8212
upperneck 33.1286 -12.0436 10.3296
head 16.1601 -4.737 4.48991
rclavicle 1.31943e-014 0
rhumerus -32.9921 -3.64715 -87.8915
rradius 42.1554
rwrist 2.85279
rhand -15.4571 10.0673
rfingers 7.12502
rthumb 10.7238 -19.639
lclavicle 1.31943e-014 0
lhumerus -37.8548 -1.27388 87.9186
lradius 31.7974
lwrist -7.6875
lhand -16.148 24.0979
lfingers 7.12502
lthumb 10.0574 53.8376
rfemur -11.4864 -12.2954 19.511
rtibia 25.3779
rfoot -12.1319 -22.6041
rtoes 11.2479
lfemur -0.226159 3.13035 -22.6006
ltibia 8.12564
lfoot -2.55108 14.1962
ltoes 5.73371
531
root -0.308264 18.3029 2.00279 -178.165 28.7527 181.564
lowerback 10.7793 0.495828 -2.31744
upperback 0.138364 0.437487 0.384885
thorax -5.92851 0.305504 1.63982
lowerneck -16.7108 -9.56593 -12.706
upperneck 33.2446 -12.0657 10.2446
head 16.2045 -4.74291 4.43259
rclavicle -1.28713e-014 -2.18663e-015
rhumerus -33.0904 -3.61313 -87.9526
rradius 42.1107
rwrist 2.8946
rhand -15.4479 10.4829
rfingers 7.12502
rthumb 10.7327 -19.2229
lclavicle -1.28713e-014 -2.18663e-015
lhumerus -37.9762 -1.61291 87.8996
lradius 31.8272
lwrist -7.45923
lhand -16.2544 24.0595
lfingers 7.12502
lthumb 9.95477 53.8042
rfemur -11.9408 -13.3099 19.3681
rtibia 26.2668
rfoot -12.1302 -22.9263
rtoes 11.4883
lfemur 0.120906 3.58545 -22.8217
ltibia 7.48138
lfoot -2.30191 14.8816
ltoes 6.66628
532
root -0.326109 18.3073 2.00806 -178.081 30.0736 181.596
lowerback 10.763 0.584845 -2.3674
upperback 0.0381923 0.544232 0.37211
thorax -6.03058 0.359597 1.63771
lowerneck -16.5419 -9.61289 -12.9037
upperneck 33.1988 -12.1519 10.3836
head 16.188 -4.79678 4.51102
rclavicle 7.21837e-014 7.15625e-015
rhumerus -33.3209 -3.61433 -87.9195
rradius 42.1474
rwrist 2.92069
rhand -15.287 10.647
rfingers 7.12502
rthumb 10.888 -19.0507
lclavicle 7.21837e-014 7.15625e-015
lhumerus -38.2216 -1.68318 87.8969
lradius 31.9077
lwrist -7.31603
lhand -16.9446 23.9928
lfingers 7.12502
lthumb 9.28876 53.7681
rfemur -12.387 -13.9358 19.3818
rtibia 27.2281
rfoot -12.4477 -23.1894
rtoes 13.1816
lfemur 0.584509 4.10086 -22.8858
ltibia 6.5474
lfoot -1.94381 15.4963
ltoes 7.27047
533
root -0.343662 18.3072 2.01154 -178.156 31.36 181.407
lowerback 10.6779 0.67046 -2.5849
upperback 0.0325924 0.628435 0.309653
thorax -5.99436 0.405615 1.68204
lowerneck -16.3829 -9.66409 -13.1799
upperneck 33.0305 -12.2674 10.6474
head 16.1376 -4.86232 4.64497
rclavicle -3.20292e-014 8.54774e-015
rhumerus -33.4182 -3.54599 -87.9119
rradius 42.2207
rwrist 2.85984
rhand -14.9965 10.5629
rfingers 7.12502
rthumb 11.1681 -19.1198
lclavicle -3.20292e-014 8.54774e-015
lhumerus -38.1874 -1.63628 87.8116
lradius 31.8196
lwrist -7.45901
lhand -17.1119 24.1093
lfingers 7.12502
lthumb 9.12734 53.8918
rfemur -12.7107 -14.5086 19.1319
rtibia 28.2161
rfoot -12.9165 -23.2507
rtoes 15.3755
lfemur 1.22602 4.57925 -23.1623
ltibia 5.38181
lfoot -1.26256 16.0897
ltoes 6.68062
534
root -0.358701 18.3073 2.00996 -178.366 32.4686 181.088
lowerback 10.5462 0.705794 -2.82653
upperback 0.0603453 0.641873 0.16766
thorax -5.89279 0.415759 1.66817
lowerneck -16.3068 -9.70274 -13.231
upperneck 32.9828 -12.3602 10.7187
head 16.1235 -4.90782 4.66351
rclavicle -1.40889e-014 -2.5842e-015
rhumerus -33.409 -3.61093 -87.9084
rradius 42.1819
rwrist 2.89282
rhand -14.6438 10.6773
rfingers 7.12502
rthumb 11.5083 -18.9867
lclavicle -1.40889e-014 -2.5842e-015
lhumerus -38.0218 -1.66588 87.6315
lradius 31.6459
lwrist -7.59825
lhand -16.9904 24.1036
lfingers 7.12502
lthumb 9.24462 53.8809
rfemur -12.9198 -15.2705 18.737
rtibia 29.2096
rfoot -13.104 -23.2421
rtoes 16.0776
lfemur 2.101 4.88344 -23.5311
ltibia 3.86456
lfoot -0.246554 16.6233
ltoes 5.74178
535
root -0.372768 18.3125 2.01014 -178.416 33.7024 181.075
lowerback 10.4828 0.74943 -2.86902
upperback 0.0344211 0.692928 0.133744
thorax -5.88716 0.441159 1.64902
lowerneck -16.2408 -9.71788 -13.3207
upperneck 33.0082 -12.3969 10.7755
head 16.141 -4.93334 4.69862
rclavicle -9.02234e-014 5.96354e-016
rhumerus -33.4663 -3.62821 -87.8428
rradius 42.027
rwrist 2.91803
rhand -14.3908 10.844
rfingers 7.12502
rthumb 11.7523 -18.8063
lclavicle -9.02234e-014 5.96354e-016
lhumerus -37.9519 -1.63482 87.4846
lradius 31.5485
lwrist -7.41976
lhand -16.7191 24.4217
lfingers 7.12502
lthumb 9.5064 54.1872
rfemur -13.1372 -15.8116 18.6346
rtibia 30.1933
rfoot -13.313 -23.1631
rtoes 17.4393
lfemur 3.77303 5.32966 -23.5767
ltibia 0.761198
lfoot 1.26497 16.9738
ltoes 5.87435
536
root -0.388867 18.3157 2.01337 -178.528 35.0348 181.025
lowerback 10.5415 0.833974 -2.9366
upperback 0.00272829 0.792033 0.102566
thorax -5.95936 0.492278 1.63827
lowerneck -16.2176 -9.71208 -13.3563
upperneck 33.0005 -12.3909 10.7538
head 16.1313 -4.9461 4.69442
rclavicle -1.25259e-013 5.36719e-015
rhumerus -33.5536 -3.64505 -87.7722
rradius 41.8457
rwrist 3.04361
rhand -14.2717 10.9717
rfingers 7.12502
rthumb 11.8671 -18.672
lclavicle -1.25259e-013 5.36719e-015
lhumerus -37.9961 -1.35389 87.2843
lradius 31.519
lwrist -7.46418
lhand -16.3865 24.5228
lfingers 7.12502
lthumb 9.82731 54.2735
rfemur -13.3409 -16.0796 18.4702
rtibia 31.2148
rfoot -13.7258 -23.1662
rtoes 19.5392
lfemur 4.31055 5.8652 -23.6722
ltibia 2.38542e-015
lfoot 1.26173 17.572
ltoes 7.03904
537
root -0.40306 18.3116 2.01346 -178.715 36.3272 180.825
lowerback 10.4814 0.920004 -3.059
upperback 0.0145176 0.887511 -0.0118847
thorax -5.91813 0.540612 1.57292
lowerneck -16.2514 -9.70116 -13.2399
upperneck 32.9552 -12.411 10.6982
head 16.1026 -4.95472 4.63949
rclavicle -4.20181e-014 2.38542e-015
rhumerus -33.5698 -3.66881 -87.7913
rradius 41.6564
rwrist 3.1737
rhand -14.3868 11.0391
rfingers 7.12502
rthumb 11.7561 -18.611
lclavicle -4.20181e-014 2.38542e-015
lhumerus -38.1538 -0.945897 86.9523
lradius 31.7046
lwrist -7.71693
lhand -16.3111 24.339
lfingers 7.12502
lthumb 9.90004 54.0862
rfemur -13.5975 -16.5614 18.2276
rtibia 32.123
rfoot -13.1406 -23.5408
rtoes 18.1024
lfemur 4.47514 6.35423 -23.9134
ltibia -1.03368e-014
lfoot 0.832783 18.2808
ltoes 7.68406
